<?xml version="1.0" encoding="utf-8"?>
<!-- Generator: Adobe Illustrator 24.1.1, SVG Export Plug-In . SVG Version: 6.00 Build 0)  -->
<svg version="1.1" xmlns="http://www.w3.org/2000/svg" xmlns:xlink="http://www.w3.org/1999/xlink" x="0px" y="0px"
	 viewBox="0 0 600 492.07" style="enable-background:new 0 0 600 492.07;" xml:space="preserve">
<style type="text/css">
	.st0{fill:none;stroke:#000000;stroke-width:7;stroke-miterlimit:10;}
	.st1{display:none;}
	.st2{display:inline;fill:none;stroke:#000000;stroke-width:0.3137;stroke-miterlimit:10;}
	.st3{display:inline;fill:none;stroke:#000000;stroke-width:0.3192;stroke-miterlimit:10;}
	.st4{display:inline;fill:none;stroke:#000000;stroke-width:6;stroke-miterlimit:10;}
	.st5{display:inline;fill:none;stroke:#000000;stroke-width:0.2895;stroke-miterlimit:10;}
	.st6{fill:none;stroke:#000000;stroke-width:6.9372;stroke-miterlimit:10;}
</style>
<g id="Layer_1">
	<path class="st0" d="M116.73,247.23c49.62,0,89.77-18.3,89.77-40.93"/>
	<path class="st0" d="M116.73,247.23c-49.62,0-89.77-18.3-89.77-40.93"/>
	<path class="st0" d="M296.28,247.23c49.62,0,89.77-18.3,89.77-40.93"/>
	<path class="st0" d="M296.28,247.23c-49.62,0-89.77-18.3-89.77-40.93"/>
	<path class="st0" d="M475.82,247.23c49.62,0,89.77-18.3,89.77-40.93"/>
	<path class="st0" d="M475.82,247.23c-49.62,0-89.77-18.3-89.77-40.93"/>
	<path class="st0" d="M120.46,351.96c49.62,0,89.77-18.3,89.77-40.93"/>
	<path class="st0" d="M120.46,351.96c-49.62,0-89.77-18.3-89.77-40.93"/>
	<path class="st0" d="M300,351.96c49.62,0,89.77-18.3,89.77-40.93"/>
	<path class="st0" d="M300,351.96c-49.62,0-89.77-18.3-89.77-40.93"/>
	<path class="st0" d="M479.54,351.96c49.62,0,89.77-18.3,89.77-40.93"/>
	<path class="st0" d="M479.54,351.96c-49.62,0-89.77-18.3-89.77-40.93"/>
	<path class="st0" d="M116.73,456.69c49.62,0,89.77-18.3,89.77-40.93"/>
	<path class="st0" d="M116.73,456.69c-49.62,0-89.77-18.3-89.77-40.93"/>
	<path class="st0" d="M296.28,456.69c49.62,0,89.77-18.3,89.77-40.93"/>
	<path class="st0" d="M296.28,456.69c-49.62,0-89.77-18.3-89.77-40.93"/>
	<path class="st0" d="M475.82,456.69c49.62,0,89.77-18.3,89.77-40.93"/>
	<path class="st0" d="M475.82,456.69c-49.62,0-89.77-18.3-89.77-40.93"/>
</g>
<g id="Layer_2" class="st1">
	<path class="st2" d="M344.89,142.68c-20.63,0-94.2,113.68-103.68,180.38"/>
	<path class="st3" d="M344.89,142.68c17.12,0,86.05,144.49,86.05,180.38"/>
	<circle class="st3" cx="298.81" cy="291.23" r="21.22"/>
	<path class="st3" d="M344.89,142.68c4.71,0,23.65,88.63,23.65,110.65"/>
	<path class="st3" d="M368.54,309.42c11.01,0,55.32-14.57,55.32-18.19"/>
	<path class="st4" d="M241.21,520.12"/>
	<path class="st4" d="M241.21,323.06"/>
	<path class="st5" d="M241.26,322.87c-20.77,102.76-2.7,199.19,0.85,197.05"/>
</g>
<g id="Layer_3">
	<path class="st0" d="M474.5,108.45c-10.5-11.21-104.41,1.67-142.35,27.54"/>
	<path class="st0" d="M474.5,108.45c8.71,9.31-27.97,113.97-45.8,130.66"/>
	
		<ellipse transform="matrix(0.707 -0.7072 0.7072 0.707 2.7494 311.6367)" class="st6" cx="377.5" cy="152.5" rx="14.31" ry="15.66"/>
	<path class="st0" d="M474.5,108.45c2.4,2.56-31.99,54.08-42.92,64.32"/>
	<path class="st0" d="M403.72,198.85c5.6,5.98,35.39,23.29,37.19,21.61"/>
	<path class="st0" d="M332.15,135.99"/>
	<path class="st0" d="M332.27,135.92c-61.61,36.5-99.66,92.13-101.16,96.78"/>
</g>
</svg>
