<?xml version="1.0" encoding="utf-8"?>
<!-- Generator: Adobe Illustrator 24.1.1, SVG Export Plug-In . SVG Version: 6.00 Build 0)  -->
<svg version="1.1" xmlns="http://www.w3.org/2000/svg" xmlns:xlink="http://www.w3.org/1999/xlink" x="0px" y="0px"
	 viewBox="0 0 1000 800" style="enable-background:new 0 0 1000 800;" xml:space="preserve">
<style type="text/css">
	.st0{fill:#231F20;}
</style>
<g id="Layer_2">
	<path id="XMLID_102_" class="st0" d="M937.63,140.74c52.74-11.65,11.97-29.01-60.38-12.96s-105.86-28.46-201.64,9.84
		c-95.78,38.3-190.68,52.39-230.77,45.22c-40.09-7.17-19.23,76.26-53.31,101.25s-72.35,61.99-91.37,83.75
		c-19.02,21.76-89.26,19.6-74.86,52.84c14.4,33.23,14.88,46.97-36.99,74.6c-51.86,27.63-89.47,23.11-148.11,80.55l142.7,12.32
		l57.89,130.85c0,0,2.06,10.49,15.12-77.14c13.06-87.63,23.37-135.66,67.1-172.21c0,0,29.47,63.56,37.92,64.12
		c0,0,31.21-89.48,81.09-121.84c47.59-30.88,67.96-24.18,67.96-24.18l-4.07,65.69c-0.09,1.41,1.82,1.94,2.45,0.68
		c10.4-20.9,63-86.47,102.02-103.67c45.98-20.28,126.75-44.58,148.32-71.53c0,0-35.38-68.13-2.03-110.97
		c0,0-16.1,68.32,15.56,108.13c0,0,72.55-30.37,90.98-49.38c18.43-19.01,79.82-45.85,81.87-67.13c2.06-21.28-46.14-0.38-92.65,50.46
		C852.42,210.02,884.89,152.39,937.63,140.74z M792.72,187.16c-9.38-2.01-15.35-11.25-13.34-20.63
		c2.01-9.38,11.25-15.35,20.63-13.34c9.38,2.01,15.35,11.25,13.34,20.63C811.33,183.2,802.1,189.17,792.72,187.16z"/>
</g>
<g id="Layer_3">
	<g id="XMLID_2_">
	</g>
</g>
</svg>
